<svg xmlns="http://www.w3.org/2000/svg" version="1.1" xmlns:xlink="http://www.w3.org/1999/xlink" viewBox="0 0 200 200" width="200" height="200"><metadata><rdf:RDF xmlns:rdf="http://www.w3.org/1999/02/22-rdf-syntax-ns#" xmlns:dc="http://purl.org/dc/elements/1.1/"><rdf:Description><dc:creator>RealFaviconGenerator</dc:creator><dc:source>https://realfavicongenerator.net</dc:source></rdf:Description></rdf:RDF></metadata><rect width="200" height="200" fill="url('#gradient')"></rect><defs><linearGradient id="gradient" gradientTransform="rotate(45 0.5 0.5)"><stop offset="0%" stop-color="#2b7fbc"></stop><stop offset="100%" stop-color="#213340"></stop></linearGradient></defs><g><g fill="#00ff7d" transform="matrix(4.298507462686567,0,0,4.298507462686567,5.388130061662025,130.5452705853021)" stroke="#000000" stroke-width="0.55"><path d="M8.87 0L6.36-5.02L4.50-5.02L4.50 0L1.07 0L1.07-14.22L6.67-14.22Q9.20-14.22 10.63-13.10Q12.05-11.97 12.05-9.92L12.05-9.92Q12.05-8.44 11.45-7.46Q10.85-6.48 9.57-5.88L9.57-5.88L12.54-0.15L12.54 0L8.87 0ZM4.50-11.57L4.50-7.67L6.67-7.67Q7.65-7.67 8.14-8.18Q8.63-8.69 8.63-9.61Q8.63-10.53 8.13-11.05Q7.64-11.57 6.67-11.57L6.67-11.57L4.50-11.57ZM16.05-7.47L16.08-7.49Q15.51-8.31 15.18-9.05Q14.85-9.79 14.85-10.59L14.85-10.59Q14.85-12.30 15.97-13.36Q17.08-14.42 18.88-14.42L18.88-14.42Q20.49-14.42 21.54-13.44Q22.60-12.46 22.60-11.01L22.60-11.01Q22.60-9.19 20.60-7.78L20.60-7.78L19.85-7.27L22.04-4.76Q22.58-5.83 22.58-7.11L22.58-7.11L25.34-7.11Q25.34-4.23 24.01-2.49L24.01-2.49L26.18 0L22.51 0L21.85-0.75Q21.03-0.26 20.17-0.03Q19.32 0.21 18.24 0.21L18.24 0.21Q16.13 0.21 14.86-0.90Q13.59-2.01 13.59-3.82L13.59-3.82Q13.59-4.80 14.10-5.61Q14.60-6.41 16.05-7.47L16.05-7.47ZM18.46-2.33L18.46-2.33Q19.32-2.33 20.10-2.73L20.10-2.73L17.54-5.64L17.45-5.59Q16.89-4.90 16.89-4.04L16.89-4.04Q16.89-3.33 17.34-2.83Q17.79-2.33 18.46-2.33ZM17.70-10.63L17.70-10.63Q17.70-9.94 18.44-8.96L18.44-8.96L19.09-9.38Q19.54-9.67 19.75-9.98Q19.95-10.29 19.95-10.77L19.95-10.77Q19.95-11.22 19.64-11.55Q19.33-11.88 18.87-11.88L18.87-11.88Q18.32-11.88 18.01-11.54Q17.70-11.19 17.70-10.63ZM27.60-14.22L32.10-14.22L35.27-4.33L38.44-14.22L42.95-14.22L42.95 0L39.51 0L39.51-3.32L39.84-10.12L36.41 0L34.14 0L30.69-10.13L31.03-3.32L31.03 0L27.60 0L27.60-14.22Z"></path></g></g><style>@media (prefers-color-scheme: light) { :root { filter: contrast(1) brightness(1); } }
</style></svg>